<?xml version="1.0" encoding="UTF-8"?>
<!DOCTYPE svg PUBLIC "-//W3C//DTD SVG 1.1//EN" "http://www.w3.org/Graphics/SVG/1.1/DTD/svg11.dtd">
<!-- Creator: CorelDRAW X7 -->
<svg xmlns="http://www.w3.org/2000/svg" xml:space="preserve" width="255.899mm" height="44.8981mm" version="1.1" style="shape-rendering:geometricPrecision; text-rendering:geometricPrecision; image-rendering:optimizeQuality; fill-rule:evenodd; clip-rule:evenodd"
viewBox="0 0 24891 4367"
 xmlns:xlink="http://www.w3.org/1999/xlink">
 <defs>
  <style type="text/css">
   <![CDATA[
    .str1 {stroke:#4ade80;stroke-width:97.267}
    .str0 {stroke:#4ade80;stroke-width:19.4534}
    .fil0 {fill:#4ade80}
   ]]>
  </style>
 </defs>
 <g id="Camada_x0020_1">
  <metadata id="CorelCorpID_0Corel-Layer"/>
  <path class="fil0 str0" d="M2688 10c1201,0 2174,973 2174,2174 0,1200 -973,2173 -2174,2173 -664,0 -1259,-298 -1658,-768l499 -317c290,309 702,502 1159,502 879,0 1591,-712 1591,-1590 0,-879 -712,-1591 -1591,-1591 -476,0 -904,210 -1195,542l-497 -315c398,-494 1008,-810 1692,-810z"/>
  <path class="fil0" d="M2688 1076c612,0 1108,496 1108,1108 0,611 -496,1107 -1108,1107 -285,0 -545,-108 -741,-285l437 -277c90,50 194,79 304,79 345,0 625,-279 625,-624 0,-345 -280,-625 -625,-625 -131,0 -254,41 -354,110l-427 -270c200,-200 476,-323 781,-323z"/>
  <polygon class="fil0 str0" points="2711,2211 1360,3021 10,3830 10,2211 10,592 1360,1401 "/>
  <path class="fil0 str1" d="M7048 940c183,0 357,34 520,103 163,69 305,162 426,281 121,118 217,257 287,417 70,159 105,329 105,508 0,180 -35,350 -105,509 -70,160 -166,299 -287,417 -121,119 -263,212 -426,281 -163,68 -337,103 -520,103l-222 0 -253 -457 475 0c109,0 213,-21 311,-63 99,-43 184,-102 257,-178 72,-76 130,-166 172,-271 42,-105 63,-218 63,-341 0,-119 -21,-232 -63,-336 -42,-105 -100,-195 -172,-271 -73,-77 -158,-136 -257,-180 -98,-44 -202,-66 -311,-66l-612 0 0 2163 -536 0 0 -2619 1148 0zm2501 718c138,0 267,26 387,77 119,51 224,120 313,208 89,87 160,189 212,306 53,118 79,242 79,375 0,132 -26,256 -79,374 -52,117 -123,219 -212,306 -89,88 -194,157 -313,208 -120,51 -249,77 -387,77 -138,0 -266,-26 -386,-77 -120,-51 -225,-120 -314,-208 -89,-87 -160,-189 -212,-306 -52,-118 -79,-242 -79,-374 0,-133 27,-257 79,-375 52,-117 123,-219 212,-306 89,-88 194,-157 314,-208 120,-51 248,-77 386,-77zm0 1486c64,0 123,-14 178,-42 55,-27 103,-65 145,-114 42,-48 76,-104 100,-168 24,-64 36,-133 36,-208 0,-70 -12,-136 -36,-200 -24,-63 -58,-118 -100,-164 -42,-47 -90,-83 -145,-111 -55,-27 -114,-41 -178,-41 -64,0 -124,14 -180,41 -56,28 -105,64 -147,111 -42,46 -75,101 -99,164 -25,64 -37,130 -37,200 0,75 12,144 37,208 24,64 57,120 99,168 42,49 91,87 147,114 56,28 116,42 180,42zm2578 -300l413 266 -3 4c-90,149 -210,266 -362,351 -152,85 -316,127 -491,127 -138,0 -267,-25 -387,-76 -120,-51 -224,-121 -313,-208 -90,-87 -160,-189 -213,-307 -52,-117 -78,-242 -78,-374 0,-132 26,-257 78,-374 53,-117 123,-219 213,-307 89,-87 193,-156 313,-207 120,-51 249,-77 387,-77 175,0 339,42 491,127 152,85 272,202 362,352l3 4 -417 265 -3 -3c-41,-93 -100,-168 -178,-225 -78,-57 -164,-86 -258,-86 -69,0 -134,14 -194,43 -60,29 -111,67 -155,116 -43,49 -77,105 -103,168 -25,64 -38,132 -38,204 0,73 13,140 38,202 26,63 60,117 103,163 44,46 95,82 155,108 60,27 125,40 194,40 94,0 180,-26 258,-77 78,-51 137,-123 178,-215l3 -8 4 4zm1897 -961l0 415 -283 0 -237 -415 520 0zm-585 1036c0,57 21,106 63,146 42,40 93,60 151,60l371 0 0 434 -371 0c-99,0 -193,-18 -281,-54 -88,-37 -164,-87 -229,-150 -65,-64 -117,-138 -155,-223 -38,-84 -57,-176 -57,-273l0 -561 -276 0 0 -415 276 0 0 -677 508 0 0 1713zm1729 -1261c138,0 267,26 386,77 120,51 225,120 314,208 89,87 160,189 212,306 53,118 79,242 79,375 0,132 -26,256 -79,374 -52,117 -123,219 -212,306 -89,88 -194,157 -314,208 -119,51 -248,77 -386,77 -138,0 -266,-26 -386,-77 -120,-51 -225,-120 -314,-208 -89,-87 -160,-189 -212,-306 -52,-118 -79,-242 -79,-374 0,-133 27,-257 79,-375 52,-117 123,-219 212,-306 89,-88 194,-157 314,-208 120,-51 248,-77 386,-77zm0 1486c64,0 123,-14 178,-42 55,-27 103,-65 145,-114 42,-48 76,-104 100,-168 24,-64 36,-133 36,-208 0,-70 -12,-136 -36,-200 -24,-63 -58,-118 -100,-164 -42,-47 -90,-83 -145,-111 -55,-27 -114,-41 -178,-41 -64,0 -124,14 -180,41 -56,28 -105,64 -147,111 -42,46 -75,101 -99,164 -25,64 -37,130 -37,200 0,75 12,144 37,208 24,64 57,120 99,168 42,49 91,87 147,114 56,28 116,42 180,42zm2743 -1381l-46 75 -195 340 -4 -3c-84,-48 -175,-71 -272,-71 -66,0 -128,10 -187,31 -59,22 -111,51 -157,90 -46,39 -85,84 -117,137 -31,52 -53,108 -63,168l0 1029 -520 0 0 -1871 520 0 0 243c135,-182 333,-273 593,-273 153,0 301,35 444,105l4 0zm1885 1145l218 -588 976 1239 -685 0 -509 -651zm1194 -1968l-1584 2009 0 610 -558 0 0 -2619 558 0 0 1149 899 -1149 685 0zm784 718c135,0 263,26 383,77 119,51 224,120 313,208 89,87 160,189 212,306 53,118 79,244 79,378 0,73 -8,142 -23,210l-4 7 -971 0 -245 -381 726 0c-35,-105 -94,-191 -177,-258 -83,-68 -181,-101 -293,-101 -69,0 -134,13 -195,41 -61,27 -114,63 -159,109 -44,47 -79,101 -105,164 -25,64 -38,133 -38,207 0,58 11,116 34,177 23,62 56,116 100,166 43,50 95,91 156,125 62,34 131,51 207,51 69,0 132,-10 189,-29 58,-18 112,-60 163,-125l4 -4 7 4 444 191 -8 8c-91,125 -208,224 -350,294 -141,71 -291,106 -449,106 -138,0 -267,-25 -388,-75 -121,-50 -227,-119 -316,-206 -89,-87 -160,-189 -212,-307 -52,-117 -78,-242 -78,-374 0,-134 26,-260 78,-378 52,-117 123,-219 212,-306 89,-88 195,-157 316,-208 121,-51 250,-77 388,-77zm1572 1646l-669 -1616 547 0 0 4 493 1358 -371 254zm1465 -1616l-4 8c-43,114 -85,226 -126,335 -41,108 -79,210 -115,304 -127,350 -241,650 -342,900 -101,251 -209,455 -323,612 -115,162 -244,279 -388,351 -145,73 -325,109 -542,109l-7 0 0 -509 7 0c67,0 126,-2 178,-7 52,-5 100,-16 144,-32 43,-16 83,-39 120,-67 37,-29 72,-67 105,-115 33,-44 67,-99 100,-164 33,-65 67,-142 103,-232 36,-90 75,-194 119,-312 43,-119 91,-253 145,-403 41,-112 84,-232 130,-359 46,-127 96,-265 149,-415l0 -4 547 0z"/>
 </g>
</svg>
